<svg width="56" height="56" viewBox="0 0 56 56" fill="none" xmlns="http://www.w3.org/2000/svg">
  <defs>
    <linearGradient id="pinGrad" x1="8" y1="0" x2="48" y2="56" gradientUnits="userSpaceOnUse">
      <stop offset="0%" stop-color="#2dd4bf"/>
      <stop offset="50%" stop-color="#14b8a6"/>
      <stop offset="100%" stop-color="#0d9488"/>
    </linearGradient>
    <clipPath id="pinClip">
      <path d="M28 3 C40 3 49 13 49 25 C49 37 28 53 28 53 C28 53 7 37 7 25 C7 13 16 3 28 3Z"/>
    </clipPath>
  </defs>
  <path d="M28 3 C40 3 49 13 49 25 C49 37 28 53 28 53 C28 53 7 37 7 25 C7 13 16 3 28 3Z" fill="url(#pinGrad)" opacity="0.15"/>
  <path d="M28 3 C40 3 49 13 49 25 C49 37 28 53 28 53 C28 53 7 37 7 25 C7 13 16 3 28 3Z" fill="none" stroke="url(#pinGrad)" stroke-width="2.5"/>
  <g clip-path="url(#pinClip)">
    <path d="M10 16 C16 13, 24 16, 30 13 C36 10, 42 14, 48 12" stroke="#2dd4bf" stroke-width="2.5" stroke-linecap="round" fill="none" opacity="0.9"/>
    <path d="M8 23 C16 26, 24 21, 32 23 C40 25, 44 20, 50 22" stroke="#5eead4" stroke-width="2.2" stroke-linecap="round" fill="none" opacity="0.65"/>
    <path d="M10 30 C18 27, 26 31, 34 28 C40 26, 46 29, 50 28" stroke="#99f6e4" stroke-width="2" stroke-linecap="round" fill="none" opacity="0.4"/>
    <path d="M6 36 C12 33, 20 38, 28 35 C36 32, 42 36, 50 34" stroke="#2dd4bf" stroke-width="1.8" stroke-linecap="round" fill="none" opacity="0.25"/>
  </g>
  <circle cx="28" cy="23" r="3.5" fill="#2dd4bf" opacity="0.2"/>
  <circle cx="28" cy="23" r="1.8" fill="#2dd4bf"/>
</svg>
