<svg width="56" height="56" viewBox="0 0 56 56" fill="none" xmlns="http://www.w3.org/2000/svg">
  <defs>
    <clipPath id="pinClip">
      <path d="M28 3 C40 3 49 13 49 25 C49 37 28 53 28 53 C28 53 7 37 7 25 C7 13 16 3 28 3Z"/>
    </clipPath>
  </defs>
  <path d="M28 3 C40 3 49 13 49 25 C49 37 28 53 28 53 C28 53 7 37 7 25 C7 13 16 3 28 3Z" fill="white" opacity="0.15"/>
  <path d="M28 3 C40 3 49 13 49 25 C49 37 28 53 28 53 C28 53 7 37 7 25 C7 13 16 3 28 3Z" fill="none" stroke="white" stroke-width="2"/>
  <g clip-path="url(#pinClip)">
    <path d="M10 16 C16 13, 24 16, 30 13 C36 10, 42 14, 48 12" stroke="white" stroke-width="2.5" stroke-linecap="round" fill="none" opacity="0.85"/>
    <path d="M8 23 C16 26, 24 21, 32 23 C40 25, 44 20, 50 22" stroke="white" stroke-width="2.2" stroke-linecap="round" fill="none" opacity="0.55"/>
    <path d="M10 30 C18 27, 26 31, 34 28 C40 26, 46 29, 50 28" stroke="white" stroke-width="2" stroke-linecap="round" fill="none" opacity="0.35"/>
  </g>
  <circle cx="28" cy="23" r="3" fill="white" opacity="0.25"/>
  <circle cx="28" cy="23" r="1.5" fill="white"/>
</svg>
